<svg width="44" height="28" viewBox="0 0 44 28" fill="none" xmlns="http://www.w3.org/2000/svg">
<path d="M40.4922 10.3918L42.7877 12.6872C42.892 12.7916 42.9964 13.0003 42.9964 13.1568V20.5648H22.0243H1V13.1568C1 13.0003 1.05217 12.7916 1.20868 12.6872L3.50413 10.3918C3.60847 10.2874 3.81715 10.1831 3.97366 10.1831H40.0227C40.2314 10.1831 40.3879 10.2353 40.4922 10.3918Z" fill="none" stroke="#1D2233" stroke-width="0.962963" stroke-miterlimit="10" stroke-linecap="round" stroke-linejoin="round"/>
<path d="M1 20.5645V26.0422" stroke="#1D2233" stroke-width="0.962963" stroke-miterlimit="10" stroke-linecap="round" stroke-linejoin="round"/>
<path d="M39.606 2.14893H4.3916V10.183H39.606V2.14893Z" fill="none" stroke="#1D2233" stroke-width="0.962963" stroke-miterlimit="10" stroke-linecap="round" stroke-linejoin="round"/>
<path d="M4.3916 2.14847V0.844238" stroke="#1D2233" stroke-width="0.962963" stroke-miterlimit="10" stroke-linecap="round" stroke-linejoin="round"/>
<path d="M39.707 2.14847V0.844238" stroke="#1D2233" stroke-width="0.962963" stroke-miterlimit="10" stroke-linecap="round" stroke-linejoin="round"/>
<path d="M21.0852 6.94873H5.27792C4.75622 6.94873 4.33887 7.36609 4.33887 7.88778V9.29635C4.33887 9.81805 4.75622 10.2354 5.27792 10.2354H21.0852C21.6069 10.2354 22.0243 9.81805 22.0243 9.29635V7.88778C22.0243 7.36609 21.6069 6.94873 21.0852 6.94873Z" stroke="#1D2233" stroke-width="0.962963" stroke-miterlimit="10" stroke-linecap="round" stroke-linejoin="round"/>
<path d="M38.719 6.94873H22.9117C22.39 6.94873 21.9727 7.36609 21.9727 7.88778V9.29635C21.9727 9.81805 22.39 10.2354 22.9117 10.2354H38.719C39.2407 10.2354 39.6581 9.81805 39.6581 9.29635V7.88778C39.6059 7.36609 39.1886 6.94873 38.719 6.94873Z" stroke="#1D2233" stroke-width="0.962963" stroke-miterlimit="10" stroke-linecap="round" stroke-linejoin="round"/>
<path d="M42.9961 19.9336V26.6148" stroke="#1D2233" stroke-linecap="round"/>
</svg>
