<svg width="38" height="35" viewBox="0 0 38 35" fill="none" xmlns="http://www.w3.org/2000/svg">
<path d="M37 14.6904V34.296" stroke="#1D2233" stroke-width="0.962963" stroke-miterlimit="10" stroke-linecap="round" stroke-linejoin="round"/>
<path d="M7.31738 19.1812H29.8803" stroke="#1D2233" stroke-width="0.962963" stroke-miterlimit="10" stroke-linecap="round" stroke-linejoin="round"/>
<path d="M18.5986 19.1812V34.2961" stroke="#1D2233" stroke-width="0.962963" stroke-miterlimit="10" stroke-linecap="round" stroke-linejoin="round"/>
<path d="M0.526367 14.6904V34.296" stroke="#1D2233" stroke-width="0.962963" stroke-miterlimit="10" stroke-linecap="round" stroke-linejoin="round"/>
<path d="M10.4935 34.296V24.4932H0.526367" stroke="#1D2233" stroke-width="0.962963" stroke-miterlimit="10" stroke-linecap="round" stroke-linejoin="round"/>
<path d="M27.0332 34.296V24.4932H37.0003" stroke="#1D2233" stroke-width="0.962963" stroke-miterlimit="10" stroke-linecap="round" stroke-linejoin="round"/>
<path d="M18.5986 1.16309V7.29669" stroke="#1D2233" stroke-width="0.962963" stroke-miterlimit="10" stroke-linecap="round" stroke-linejoin="round"/>
<path d="M19.4741 11.7329C19.4741 12.2258 19.0908 12.6091 18.5979 12.6091C18.105 12.6091 17.7217 12.2258 17.7217 11.7329" fill="none"/>
<path d="M19.4741 11.7329C19.4741 12.2258 19.0908 12.6091 18.5979 12.6091C18.105 12.6091 17.7217 12.2258 17.7217 11.7329" stroke="#1D2233" stroke-width="0.962963" stroke-miterlimit="10" stroke-linecap="round" stroke-linejoin="round"/>
<path d="M14.2168 11.678C14.2168 9.26839 16.1883 7.29688 18.5979 7.29688C21.0076 7.29688 22.9791 9.26839 22.9791 11.678H14.2168Z" fill="none" stroke="#1D2233" stroke-width="0.962963" stroke-miterlimit="10" stroke-linecap="round" stroke-linejoin="round"/>
</svg>
