<svg width="47" height="28" viewBox="0 0 47 28" fill="none" xmlns="http://www.w3.org/2000/svg">
<path d="M36.8818 0.841309H10.1201C8.46326 0.841309 7.12012 2.18445 7.12012 3.84131V15.5705H39.8819V3.84131C39.8819 2.18445 38.5387 0.841309 36.8818 0.841309Z" stroke="#1D2233" stroke-width="0.962963" stroke-miterlimit="10" stroke-linecap="round" stroke-linejoin="round"/>
<path d="M42.9458 9.50488H39.8809V15.5699H45.9458V12.5049C45.9458 10.848 44.6027 9.50488 42.9458 9.50488Z" stroke="#1D2233" stroke-width="0.962963" stroke-miterlimit="10" stroke-linecap="round" stroke-linejoin="round"/>
<path d="M7.06498 9.50488H4C2.34315 9.50488 1 10.848 1 12.5049V15.5699H7.06498V9.50488Z" stroke="#1D2233" stroke-width="0.962963" stroke-miterlimit="10" stroke-linecap="round" stroke-linejoin="round"/>
<path d="M46 15.5703H1V21.7977H46V15.5703Z" stroke="#1D2233" stroke-width="0.962963" stroke-miterlimit="10" stroke-linecap="round" stroke-linejoin="round"/>
<path d="M7.12012 21.7979V26.6173" stroke="#1D2233" stroke-width="0.962963" stroke-miterlimit="10" stroke-linecap="round" stroke-linejoin="round"/>
<path d="M39.9346 21.7979V26.6173" stroke="#1D2233" stroke-width="0.962963" stroke-miterlimit="10" stroke-linecap="round" stroke-linejoin="round"/>
<path d="M13.7798 6.14797C14.0789 6.14797 14.3213 5.90553 14.3213 5.60646C14.3213 5.30739 14.0789 5.06494 13.7798 5.06494C13.4807 5.06494 13.2383 5.30739 13.2383 5.60646C13.2383 5.90553 13.4807 6.14797 13.7798 6.14797Z" fill="#1D2233"/>
<path d="M23.4732 6.14797C23.7722 6.14797 24.0147 5.90553 24.0147 5.60646C24.0147 5.30739 23.7722 5.06494 23.4732 5.06494C23.1741 5.06494 22.9316 5.30739 22.9316 5.60646C22.9316 5.90553 23.1741 6.14797 23.4732 6.14797Z" fill="#1D2233"/>
<path d="M33.2202 6.14797C33.5193 6.14797 33.7617 5.90553 33.7617 5.60646C33.7617 5.30739 33.5193 5.06494 33.2202 5.06494C32.9212 5.06494 32.6787 5.30739 32.6787 5.60646C32.6787 5.90553 32.9212 6.14797 33.2202 6.14797Z" fill="#1D2233"/>
<path d="M13.7798 11.3477C14.0789 11.3477 14.3213 11.1052 14.3213 10.8062C14.3213 10.5071 14.0789 10.2646 13.7798 10.2646C13.4807 10.2646 13.2383 10.5071 13.2383 10.8062C13.2383 11.1052 13.4807 11.3477 13.7798 11.3477Z" fill="#1D2233"/>
<path d="M23.4732 11.3477C23.7722 11.3477 24.0147 11.1052 24.0147 10.8062C24.0147 10.5071 23.7722 10.2646 23.4732 10.2646C23.1741 10.2646 22.9316 10.5071 22.9316 10.8062C22.9316 11.1052 23.1741 11.3477 23.4732 11.3477Z" fill="#1D2233"/>
<path d="M33.2202 11.3477C33.5193 11.3477 33.7617 11.1052 33.7617 10.8062C33.7617 10.5071 33.5193 10.2646 33.2202 10.2646C32.9212 10.2646 32.6787 10.5071 32.6787 10.8062C32.6787 11.1052 32.9212 11.3477 33.2202 11.3477Z" fill="#1D2233"/>
</svg>
